<?xml version="1.0" encoding="UTF-8"?> <svg xmlns="http://www.w3.org/2000/svg" xmlns:xlink="http://www.w3.org/1999/xlink" version="1.1" id="Layer_1" x="0px" y="0px" viewBox="0 0 512 512" style="enable-background:new 0 0 512 512;" xml:space="preserve"> <style type="text/css"> .st0{fill:#000000;} </style> <path class="st0" d="M462.5,307.5c-59,31.9-64.7-26-64.7-26c-48.8-5.8-85-60.2-85-60.2c-65.9,34-29.2,130-0.7,166.9 c36.5,47.3,9.8,123.8,9.8,123.8S173,500,97,404.4C40,332.9,54.7,265.1,70.9,220.4c19.5-53.8,46-83.2,84.5-114.6 c57.2-46.6,162.9-52.5,162.9-52.5c0.7-3.9,3.7-8.5,7.8-13.3c-12.6,0.4-28.1,1.3-45.7,3.7c-12,2.3-25.4,3.6-39,7.6 c-13.8,3-27.8,7.8-42.2,13.4C185,70,171,77.5,157,85.6c-13.2,9.2-27.3,17.7-38.4,29.8c-12.8,10.4-22.1,24-31.6,36.9 c-9.9,12.6-14.9,28.1-22.2,41.5c-5.6,14.2-8.6,28.9-12.8,42.3c-3.8,13.6-3.7,27.1-5.6,39.3c-1.6,12.2-2.9,23.3-2,33.4 c0.3,10.1,0.6,18.7,0.7,25.9c0.5,14.4,0.7,22.5,0.7,22.5l-2,0.2c0,0-1.7-8.1-3.9-22.5c-1-7.3-2.4-16.1-3.9-26.2 c-2.2-10.2-2.3-21.8-1.3-34.6c1-12.6,0.1-26.6,3-41.2c3.4-14.4,5.5-30.2,11.3-45.5c7.5-14.6,12.4-31.4,22.8-45.3 c9.9-14.4,19.7-29.3,33.3-40.9c12.5-12.9,27.9-21.8,42.4-31.4c15.1-8.1,30.3-15.7,45.7-21c15.2-5.8,30.4-9.4,45-11.5 c14.3-3.2,28.2-3.5,40.8-5c21.4-1,39.3,0,53.3,1.5C350,17.1,377.7,0.1,377.7,0.1c-5.7,5.7-7.9,36.3-7.9,36.3 c5.7-10.2,23.8-20.5,23.8-20.5c-10.2,23.8,0,74.9,0,74.9c29.5,29.5,62.4,131.7,62.4,131.7l12.5,18.1 C484.1,263.4,478.2,299,462.5,307.5L462.5,307.5z"></path> </svg> 