<?xml version="1.0" encoding="UTF-8"?> <svg xmlns="http://www.w3.org/2000/svg" xmlns:xlink="http://www.w3.org/1999/xlink" version="1.1" id="Layer_1" x="0px" y="0px" viewBox="0 0 512 512" style="enable-background:new 0 0 512 512;" xml:space="preserve"> <style type="text/css"> .st0{fill:#000000;} </style> <path class="st0" d="M473.2,306.8c-58.9,31.8-64.6-26.1-64.6-26.1c-48.6-5.6-84.9-59.9-84.9-59.9c-65.7,33.9-29,129.7-0.7,166.5 c36.4,47.1,9.8,123.4,9.8,123.4s-148.4-12-224.2-107.2c-56.8-71.5-42.2-139-26-183.5c19.5-53.6,45.8-83,84.2-114.3 c57.1-46.6,162.6-52.4,162.6-52.4c3.4-19.3,58.9-53.2,58.9-53.2c-5.7,5.7-7.9,36.3-7.9,36.3C386,26.2,404.2,16,404.2,16 c-10.2,23.8,0,74.7,0,74.7c29.4,29.5,62.2,131.3,62.2,131.3l12.5,18.2C494.6,262.7,488.9,298.3,473.2,306.8L473.2,306.8z M295.3,44.5c8.1,0,14.6-6.6,14.6-14.6c0-8.1-6.5-14.6-14.6-14.6c-8,0-14.6,6.6-14.6,14.6C280.8,37.9,287.3,44.5,295.3,44.5 L295.3,44.5z M232,55.9c8.1,0,14.6-6.5,14.6-14.6c0-8-6.6-14.6-14.6-14.6c-8.1,0-14.6,6.5-14.6,14.6S224,55.9,232,55.9L232,55.9z M180,78.6c8.1,0,14.6-6.5,14.6-14.6S188,49.4,180,49.4c-8.1,0-14.6,6.5-14.6,14.6C165.5,72.1,172,78.6,180,78.6L180,78.6z M131.3,107.9c8.1,0,14.6-6.6,14.6-14.6c0-8.1-6.5-14.6-14.6-14.6s-14.5,6.6-14.5,14.6S123.2,107.9,131.3,107.9L131.3,107.9z M93.9,148.4c8.1,0,14.6-6.5,14.6-14.5c0-8.1-6.5-14.6-14.6-14.6c-8,0-14.6,6.6-14.6,14.6C79.4,141.9,86,148.4,93.9,148.4 L93.9,148.4z M81,182.6c0-8.1-6.6-14.6-14.6-14.6c-8.1,0-14.6,6.6-14.6,14.6c0,8.1,6.6,14.6,14.6,14.6C74.4,197.1,81,190.7,81,182.6 L81,182.6z M46.9,255.6c8.1,0,14.6-6.5,14.6-14.6s-6.5-14.6-14.6-14.6s-14.6,6.5-14.6,14.6S38.8,255.6,46.9,255.6L46.9,255.6z M51.8,304.4c0-8.1-6.6-14.6-14.6-14.6c-8.1,0-14.6,6.6-14.6,14.6c0,8.1,6.6,14.6,14.6,14.6S51.8,312.4,51.8,304.4L51.8,304.4z M48.5,348.2c-8.1,0-14.6,6.6-14.6,14.6c0,8.1,6.6,14.6,14.6,14.6c8.1,0,14.6-6.6,14.6-14.6C63.1,354.8,56.6,348.2,48.5,348.2 L48.5,348.2z"></path> </svg> 