<?xml version="1.0" encoding="UTF-8"?> <svg xmlns="http://www.w3.org/2000/svg" xmlns:xlink="http://www.w3.org/1999/xlink" version="1.1" id="Layer_1" x="0px" y="0px" viewBox="0 0 512 355.2" style="enable-background:new 0 0 512 355.2;" xml:space="preserve"> <style type="text/css"> .st0{fill:#000000;} </style> <path class="st0" d="M503.2,182.3l-109.4-72.9v-9.2c0-6.6-3.3-12.7-8.8-16.4L266.8,5c-6.6-4.4-15.2-4.4-21.8,0L126.9,83.8 c-5.5,3.7-8.8,9.8-8.8,16.4v9.2L8.7,182.3c-5.5,3.7-8.8,9.8-8.8,16.4v137.8c0,10.9,8.8,19.7,19.7,19.7h118.2h19.7 c10.9,0,19.7-8.8,19.7-19.7V238h157.5v98.5c0,10.9,8.8,19.7,19.7,19.7h19.7h118.2c10.9,0,19.7-8.8,19.7-19.7V198.7 C512,192.1,508.7,186,503.2,182.3z M236.3,159.3v-59.1h39.4v59.1H236.3z"></path> </svg> 