<?xml version="1.0" encoding="UTF-8"?> <svg xmlns="http://www.w3.org/2000/svg" xmlns:xlink="http://www.w3.org/1999/xlink" version="1.1" id="Layer_1" x="0px" y="0px" viewBox="0 0 512 512" style="enable-background:new 0 0 512 512;" xml:space="preserve"> <style type="text/css"> .st0{fill:#000000;} </style> <g> <path class="st0" d="M124.6,324.8c-34.1,0-61.8,27.7-61.8,61.9c0,34.1,27.7,61.9,61.8,61.9s61.9-27.8,61.9-61.9 S158.7,324.8,124.6,324.8L124.6,324.8z"></path> <g> <path class="st0" d="M124.6,396.8"></path> <path class="st0" d="M470.6,309.2c-4.5,0-8.2,3.7-8.2,8.2V331h-16.8V103.2c0-21.9-17.8-39.7-39.7-39.7H39.7 C17.8,63.5,0,81.3,0,103.2v261.7c0,4.5,3.7,8.2,8.2,8.2h22.9c-0.1,0.6-0.2,1.1-0.3,1.7c-0.6,4.5,2.6,8.6,7.1,9.1 c4.5,0.6,8.6-2.6,9.1-7.1c4.9-39,38.3-68.3,77.6-68.3s72.7,29.4,77.6,68.3c0.5,4.1,4,7.1,8.1,7.1c0.3,0,0.7,0,1-0.1 c4.5-0.6,7.6-4.6,7.1-9.1c-0.1-0.6-0.2-1.1-0.3-1.7h244.3v67.3c0,4.5,3.7,8.2,8.2,8.2s8.2-3.7,8.2-8.2V373h25 c4.5,0,8.2-3.7,8.2-8.2v-25.7c0-4.5-3.7-8.2-8.2-8.2l0,0h-25 M256.3,223.3h-105V195h105V223.3z M256.3,105.9v28.2h-105v-28.2 L256.3,105.9L256.3,105.9z M256.3,150.5v28.2h-105v-28.2H256.3z M135,178.7H30v-28.2h105V178.7z M135,195v28.2H30V195H135z M135,105.9v28.2H30v-28.2L135,105.9L135,105.9z"></path> </g> </g> </svg> 